<?xml version="1.0" standalone="no"?>
<!DOCTYPE svg PUBLIC "-//W3C//DTD SVG 20010904//EN"
 "http://www.w3.org/TR/2001/REC-SVG-20010904/DTD/svg10.dtd">
<svg version="1.0" xmlns="http://www.w3.org/2000/svg"
 width="256.000000pt" height="256.000000pt" viewBox="0 0 256.000000 256.000000"
 preserveAspectRatio="xMidYMid meet">
<metadata>
Created by potrace 1.11, written by Peter Selinger 2001-2013
</metadata>
<g transform="translate(0.000000,256.000000) scale(0.100000,-0.100000)"
fill="#000000" stroke="none">
<path d="M74 2409 l-71 -70 106 -104 106 -104 -108 -108 -107 -108 70 -70 70
-70 103 103 c56 56 107 102 112 102 5 0 56 -46 112 -102 l103 -103 65 65 c36
35 65 69 65 75 0 5 -46 56 -102 112 l-103 103 105 105 105 105 -70 70 -70 70
-105 -105 -105 -105 -105 105 -105 105 -71 -71z"/>
<path d="M75 1560 l-70 -70 105 -105 105 -105 -107 -108 -107 -107 70 -70 70
-69 107 107 107 107 105 -105 105 -105 70 70 70 70 -105 105 -105 105 105 105
105 105 -70 70 -70 70 -105 -105 -105 -105 -105 105 -105 105 -70 -70z"/>
<path d="M2020 1611 c-36 -11 -85 -38 -98 -53 -8 -11 -6 -21 12 -43 l23 -29
28 22 c97 76 229 29 209 -75 -5 -28 -33 -63 -125 -160 -130 -135 -143 -154
-162 -240 -22 -99 -34 -93 189 -93 l194 0 0 40 0 39 -150 3 -149 3 20 44 c12
28 62 88 128 155 60 61 116 126 125 143 65 129 -16 254 -163 252 -31 0 -67 -4
-81 -8z"/>
<path d="M1099 889 c-70 -8 -111 -32 -135 -78 l-19 -36 -3 53 -3 52 -65 0 -64
0 0 -400 0 -400 59 0 c42 0 60 4 64 14 3 8 6 123 6 257 1 142 6 259 12 283 29
109 78 156 162 156 76 0 128 -36 147 -101 6 -19 10 -161 10 -321 l0 -288 65 0
65 0 0 203 c1 303 17 402 74 465 31 33 39 36 97 39 51 3 70 0 96 -16 68 -43
68 -42 71 -383 l3 -308 65 0 65 0 -3 323 -3 322 -30 55 c-24 44 -41 60 -84 82
-46 24 -65 28 -135 28 -108 -1 -151 -20 -195 -89 l-33 -51 -28 43 c-50 79
-135 110 -261 96z"/>
<path d="M67 713 l-67 -68 107 -107 108 -108 -105 -105 -105 -105 68 -68 68
-69 107 103 107 103 105 -104 105 -105 70 70 70 70 -105 105 -105 105 103 103
c56 56 102 107 102 112 0 6 -29 40 -65 75 l-65 65 -103 -103 c-56 -56 -107
-102 -112 -102 -6 0 -55 45 -110 100 -55 55 -102 100 -105 100 -3 0 -36 -30
-73 -67z"/>
</g>
</svg>
